<svg width="40" height="40" viewBox="0 0 40 40" fill="none" xmlns="http://www.w3.org/2000/svg">
<path d="M20.0002 0.833008C25.2077 0.833008 25.8575 0.852174 27.9007 0.948008C29.9419 1.04384 31.3315 1.36392 32.5543 1.83926C33.8193 2.32609 34.885 2.98542 35.9507 4.04917C36.9253 5.00731 37.6794 6.1663 38.1606 7.44551C38.634 8.66642 38.956 10.0579 39.0518 12.0992C39.1419 14.1423 39.1668 14.7921 39.1668 19.9997C39.1668 25.2073 39.1477 25.857 39.0518 27.9002C38.956 29.9414 38.634 31.331 38.1606 32.5538C37.6808 33.8337 36.9265 34.993 35.9507 35.9502C34.9923 36.9245 33.8333 37.6785 32.5543 38.1601C31.3334 38.6335 29.9419 38.9555 27.9007 39.0513C25.8575 39.1414 25.2077 39.1663 20.0002 39.1663C14.7926 39.1663 14.1428 39.1472 12.0997 39.0513C10.0584 38.9555 8.66883 38.6335 7.446 38.1601C6.16629 37.6799 5.00709 36.9257 4.04966 35.9502C3.07486 34.9922 2.3207 33.8332 1.83975 32.5538C1.36441 31.3329 1.04433 29.9414 0.948496 27.9002C0.858413 25.857 0.833496 25.2073 0.833496 19.9997C0.833496 14.7921 0.852663 14.1423 0.948496 12.0992C1.04433 10.056 1.36441 8.66834 1.83975 7.44551C2.31937 6.16552 3.0737 5.00621 4.04966 4.04917C5.00737 3.07403 6.16648 2.31982 7.446 1.83926C8.66883 1.36392 10.0565 1.04384 12.0997 0.948008C14.1428 0.857924 14.7926 0.833008 20.0002 0.833008ZM20.0002 10.4163C17.4585 10.4163 15.0209 11.426 13.2237 13.2232C11.4265 15.0205 10.4168 17.458 10.4168 19.9997C10.4168 22.5413 11.4265 24.9789 13.2237 26.7761C15.0209 28.5733 17.4585 29.583 20.0002 29.583C22.5418 29.583 24.9794 28.5733 26.7766 26.7761C28.5738 24.9789 29.5835 22.5413 29.5835 19.9997C29.5835 17.458 28.5738 15.0205 26.7766 13.2232C24.9794 11.426 22.5418 10.4163 20.0002 10.4163ZM32.4585 9.93717C32.4585 9.30176 32.2061 8.69237 31.7568 8.24306C31.3075 7.79376 30.6981 7.54134 30.0627 7.54134C29.4272 7.54134 28.8179 7.79376 28.3686 8.24306C27.9192 8.69237 27.6668 9.30176 27.6668 9.93717C27.6668 10.5726 27.9192 11.182 28.3686 11.6313C28.8179 12.0806 29.4272 12.333 30.0627 12.333C30.6981 12.333 31.3075 12.0806 31.7568 11.6313C32.2061 11.182 32.4585 10.5726 32.4585 9.93717ZM20.0002 14.2497C21.5252 14.2497 22.9877 14.8555 24.066 15.9338C25.1444 17.0121 25.7502 18.4747 25.7502 19.9997C25.7502 21.5247 25.1444 22.9872 24.066 24.0655C22.9877 25.1439 21.5252 25.7497 20.0002 25.7497C18.4752 25.7497 17.0126 25.1439 15.9343 24.0655C14.856 22.9872 14.2502 21.5247 14.2502 19.9997C14.2502 18.4747 14.856 17.0121 15.9343 15.9338C17.0126 14.8555 18.4752 14.2497 20.0002 14.2497Z" fill="#FF6D4D"/>
</svg>
