<svg width="32" height="40" viewBox="0 0 32 40" fill="none" xmlns="http://www.w3.org/2000/svg">
<path fill-rule="evenodd" clip-rule="evenodd" d="M15.9998 39.1663C15.9998 39.1663 31.3332 27.6663 31.3332 16.1663C31.3332 12.0997 29.7177 8.19959 26.8421 5.32404C23.9666 2.44848 20.0665 0.833008 15.9998 0.833008C11.9332 0.833008 8.03309 2.44848 5.15753 5.32404C2.28198 8.19959 0.666504 12.0997 0.666504 16.1663C0.666504 27.6663 15.9998 39.1663 15.9998 39.1663ZM21.75 16.1663C21.75 19.342 19.1756 21.9163 16 21.9163C12.8244 21.9163 10.25 19.342 10.25 16.1663C10.25 12.9907 12.8244 10.4163 16 10.4163C19.1756 10.4163 21.75 12.9907 21.75 16.1663Z" fill="#FF6D4D"/>
</svg>
