<svg width="39" height="40" viewBox="0 0 39 40" fill="none" xmlns="http://www.w3.org/2000/svg">
<path d="M38.1667 29.4299V35.1799C38.1689 35.7137 38.0596 36.242 37.8457 36.7311C37.6319 37.2202 37.3182 37.6592 36.9249 38.0201C36.5315 38.381 36.0672 38.6557 35.5615 38.8267C35.0558 38.9977 34.52 39.0612 33.9884 39.0132C28.0905 38.3723 22.4252 36.357 17.4476 33.129C12.8166 30.1863 8.8903 26.26 5.94758 21.629C2.70837 16.6288 0.692541 10.9359 0.0634086 5.01153C0.015512 4.48151 0.0785022 3.94732 0.248368 3.44297C0.418233 2.93863 0.691253 2.47518 1.05004 2.08213C1.40883 1.68909 1.84553 1.37505 2.33234 1.16003C2.81915 0.945002 3.34539 0.833695 3.87758 0.833194H9.62758C10.5577 0.824039 11.4595 1.15343 12.1648 1.75996C12.8701 2.3665 13.3307 3.2088 13.4609 4.12986C13.7036 5.96999 14.1537 7.77675 14.8026 9.51569C15.0605 10.2017 15.1163 10.9473 14.9634 11.664C14.8105 12.3808 14.4554 13.0387 13.9401 13.5599L11.5059 15.994C14.2344 20.7925 18.2074 24.7655 23.0059 27.494L25.4401 25.0599C25.9612 24.5445 26.6191 24.1894 27.3359 24.0365C28.0527 23.8837 28.7982 23.9395 29.4842 24.1974C31.2232 24.8463 33.0299 25.2963 34.8701 25.539C35.8011 25.6704 36.6514 26.1393 37.2593 26.8567C37.8671 27.5741 38.1901 28.4899 38.1667 29.4299Z" fill="#FF6D4D"/>
</svg>
