<svg width="200" height="42" viewBox="0 0 200 42" fill="none" xmlns="http://www.w3.org/2000/svg">
<path d="M51.8263 0L57.1877 10.9162L51.5284 27.8807L45.7202 15.9318L51.8263 0Z" fill="#232629"/>
<path d="M29.1879 0L34.5494 10.9162L28.8901 27.8807L23.0818 15.9318L29.1879 0Z" fill="#232629"/>
<path d="M15.787 0H29.2127L13.3738 41.8948H0L15.787 0Z" fill="#32373D"/>
<path d="M38.574 0H51.8282L36.0416 41.8948H22.787L38.574 0Z" fill="#32373D"/>
<path d="M61.21 0H74.6358L58.7968 41.8948H45.423L61.21 0Z" fill="#FF6D4D"/>
<path d="M74.6141 0H79.2309L95.0987 41.8948H81.7628L70.2952 11.5063L74.6141 0Z" fill="#FF6D4D"/>
<path d="M66.7842 29.7993H77.2948L81.7635 41.8958H72.6788L66.7842 29.7993Z" fill="#FF6D4D"/>
<path fill-rule="evenodd" clip-rule="evenodd" d="M121.87 21.6132C121.87 24.53 121.89 25.6878 121.945 25.8668C122.037 26.1726 122.491 26.6817 122.833 26.8629C123.076 26.9917 123.181 27.0005 124.702 27.0187L126.315 27.038V26.2293V25.4206L124.922 25.4039L123.529 25.3872L123.512 23.4186L123.496 21.4498H124.906H126.315V20.6438V19.8377H124.906H123.498V18.7216V17.6055H122.684H121.87V21.6132ZM101.838 22.566V27.0303H102.683H103.527L103.544 23.7974L103.56 20.5644L105.238 22.528C106.16 23.6079 106.936 24.4789 106.961 24.4636C106.986 24.4483 107.752 23.5551 108.663 22.4789L110.32 20.5222L110.337 23.7763L110.353 27.0303H111.197H112.042V22.566V18.1015L111.119 18.1016L110.195 18.1017L108.568 20.0296L106.94 21.9574L106.706 21.6882C106.577 21.5401 105.845 20.6741 105.078 19.7639L103.685 18.1089L102.762 18.1052L101.838 18.1015V22.566ZM114.671 19.8942C114.2 20.0404 113.758 20.4327 113.549 20.8918C113.429 21.1559 113.422 21.2915 113.422 23.434C113.422 25.5766 113.429 25.7121 113.549 25.9763C113.704 26.3159 114.052 26.6845 114.389 26.8651C114.631 26.9945 114.721 27.0001 116.893 27.0195C118.428 27.0333 119.252 27.017 119.476 26.9686C119.936 26.8691 120.368 26.5172 120.596 26.0573L120.775 25.6973V23.434C120.775 21.2579 120.77 21.1598 120.642 20.8863C120.482 20.5433 120.146 20.1985 119.787 20.0086C119.527 19.8712 119.481 19.8685 117.175 19.8571C115.884 19.8506 114.757 19.8674 114.671 19.8942ZM128.445 19.9442C128.059 20.0809 127.555 20.59 127.422 20.9809C127.331 21.2432 127.316 21.5869 127.316 23.434C127.316 25.9403 127.326 25.9935 127.846 26.5089C128.376 27.0337 128.411 27.0392 131.143 27.0177C133.24 27.0013 133.504 26.988 133.685 26.8897C134.027 26.7045 134.327 26.4054 134.504 26.0749L134.672 25.7593V23.434V21.1088L134.516 20.8063C134.347 20.4797 134.011 20.1604 133.648 19.9811C133.441 19.8792 133.2 19.8675 131.072 19.857C129.06 19.8469 128.685 19.8594 128.445 19.9442ZM119.084 23.434V25.3872H117.081H115.078L115.061 23.4966C115.052 22.4568 115.059 21.5706 115.076 21.5271C115.1 21.4649 115.529 21.4516 117.095 21.4645L119.084 21.4809V23.434ZM133 21.5242C133.116 21.6397 133.107 25.2532 132.99 25.3495C132.929 25.3997 132.337 25.4153 130.94 25.4036L128.976 25.3872L128.958 23.4692C128.946 21.9761 128.96 21.5402 129.021 21.5015C129.157 21.4165 132.913 21.438 133 21.5242Z" fill="#32373D"/>
<path fill-rule="evenodd" clip-rule="evenodd" d="M169.135 18.6551V19.8304L166.897 19.8489C164.717 19.8667 164.652 19.8708 164.396 20.0063C164.056 20.1861 163.702 20.5463 163.556 20.8593C163.451 21.086 163.441 21.3059 163.44 23.4191C163.439 25.9398 163.438 25.9387 163.809 26.4019C163.909 26.5286 164.142 26.7145 164.326 26.815L164.659 26.998L167.741 27.0157L170.825 27.0334V22.2567V17.48H169.98H169.135V18.6551ZM137.233 18.1992C136.892 18.3203 136.498 18.6624 136.286 19.0199L136.114 19.3092L136.096 23.169L136.078 27.0289H136.895H137.71V25.5408V24.0526H140.558H143.407V25.5408V27.0289H144.251H145.097V23.3361C145.097 20.9032 145.074 19.5525 145.029 19.3779C144.933 18.9973 144.561 18.5487 144.158 18.3233L143.814 18.1311L140.652 18.1193C138 18.1095 137.45 18.1224 137.233 18.1992ZM143.392 21.0919L143.409 22.3784H140.559H137.71V21.1177C137.71 20.4242 137.729 19.838 137.752 19.8149C137.776 19.7918 139.05 19.7803 140.585 19.7891L143.375 19.8052L143.392 21.0919ZM147.725 19.8941C147.422 19.9858 147.185 20.1397 146.934 20.4087C146.471 20.907 146.467 20.9332 146.487 23.5256C146.504 25.6026 146.516 25.8414 146.62 26.0479C146.772 26.3514 147.109 26.6881 147.431 26.8588C147.692 26.9967 147.721 26.9981 150.777 27.0157L153.86 27.0334V26.2257V25.418L150.996 25.4018L148.132 25.3858V23.4326V21.4793L150.966 21.4633L153.798 21.4472V20.6416V19.8362L150.841 19.8416C149.213 19.8445 147.811 19.8682 147.725 19.8941ZM155.113 20.6394V21.4472L157.945 21.4633L160.778 21.4793L160.795 22.0529L160.814 22.6264H157.961H155.107L155.125 24.2592L155.143 25.8919L155.333 26.1968C155.539 26.5283 155.984 26.8635 156.353 26.9648C156.495 27.0038 157.712 27.0283 159.51 27.0285L162.436 27.0289V24.1302C162.436 22.3526 162.412 21.1433 162.373 21.0039C162.292 20.7173 161.811 20.1828 161.473 20.0036C161.219 19.8692 161.172 19.8669 158.164 19.8495L155.113 19.8317V20.6394ZM173.071 19.9204C172.482 20.1328 172.083 20.5459 171.914 21.1182C171.837 21.3826 171.824 21.8145 171.839 23.572L171.858 25.7049L172.047 26.0706C172.256 26.4762 172.679 26.841 173.076 26.9589C173.237 27.0067 174.251 27.0289 176.262 27.0289H179.213V26.2235V25.418L176.381 25.4018L173.548 25.3858L173.531 24.8123L173.512 24.2387H176.366H179.221L179.201 22.642C179.179 20.8382 179.163 20.7679 178.658 20.3161C178.138 19.8504 178.257 19.8689 175.645 19.853C173.831 19.8419 173.246 19.8574 173.071 19.9204ZM180.528 23.4326V27.0289H181.373H182.217L182.233 24.2541L182.25 21.4793H183.658H185.066L185.082 24.2541L185.099 27.0289H185.912H186.725V24.313C186.725 22.2834 186.744 21.5784 186.8 21.5228C186.907 21.4174 189.487 21.4174 189.592 21.5228C189.648 21.5784 189.668 22.2834 189.668 24.313V27.0289H190.484H191.3L191.282 24.0682L191.263 21.1074L191.108 20.8049C191.022 20.6386 190.831 20.3966 190.681 20.267C190.169 19.8203 190.371 19.8362 185.18 19.8362H180.528V23.4326ZM192.636 19.9191C192.618 19.9667 192.612 21.286 192.621 22.8508C192.638 25.393 192.652 25.7212 192.75 25.9338C192.924 26.3165 193.202 26.6191 193.56 26.815L193.893 26.998L196.131 27.0163L198.369 27.0347V27.5213C198.369 27.9076 198.348 28.0155 198.27 28.0454C198.216 28.066 197.201 28.083 196.016 28.083H193.862V28.8891V29.6952H196.181C197.607 29.6952 198.603 29.6699 198.763 29.6295C199.134 29.5371 199.582 29.1937 199.789 28.8449L199.964 28.5481L199.983 24.1921L200 19.8362H199.185H198.37L198.354 22.611L198.337 25.3858H196.335H194.331L194.3 22.6264L194.268 19.8672L193.469 19.8498C192.831 19.836 192.663 19.8499 192.636 19.9191ZM169.103 23.4326V25.3858H167.1H165.097L165.081 23.4952C165.071 22.4554 165.077 21.5692 165.094 21.5256C165.119 21.4634 165.548 21.4501 167.114 21.4631L169.103 21.4793V23.4326ZM177.572 22.146L177.589 22.8125H175.554H173.517V22.1718C173.517 21.8193 173.536 21.5121 173.559 21.4889C173.583 21.4656 174.491 21.454 175.578 21.4631L177.554 21.4793L177.572 22.146ZM160.809 24.7355V25.4185L158.79 25.4021L156.771 25.3858L156.754 24.7192L156.735 24.0526H158.772H160.809V24.7355Z" fill="#FF6D4D"/>
</svg>
