<svg width="40" height="32" viewBox="0 0 40 32" fill="none" xmlns="http://www.w3.org/2000/svg">
<path d="M4.66683 31.3337C3.61266 31.3337 2.71055 30.9586 1.9605 30.2086C1.20916 29.4572 0.833496 28.5545 0.833496 27.5003V4.50033C0.833496 3.44616 1.20916 2.54405 1.9605 1.79399C2.71055 1.04266 3.61266 0.666992 4.66683 0.666992H35.3335C36.3877 0.666992 37.2904 1.04266 38.0417 1.79399C38.7918 2.54405 39.1668 3.44616 39.1668 4.50033V27.5003C39.1668 28.5545 38.7918 29.4572 38.0417 30.2086C37.2904 30.9586 36.3877 31.3337 35.3335 31.3337H4.66683ZM20.0002 17.5816C20.1599 17.5816 20.3273 17.5573 20.5023 17.5087C20.6787 17.4615 20.8467 17.3899 21.0064 17.2941L34.5668 8.81283C34.8224 8.6531 35.014 8.45377 35.1418 8.21483C35.2696 7.9746 35.3335 7.71074 35.3335 7.42324C35.3335 6.78435 35.062 6.30519 34.5189 5.98574C33.9759 5.6663 33.4168 5.68227 32.8418 6.03366L20.0002 14.0837L7.1585 6.03366C6.5835 5.68227 6.02447 5.67396 5.48141 6.00874C4.93836 6.3448 4.66683 6.8163 4.66683 7.42324C4.66683 7.74269 4.73072 8.02188 4.8585 8.26083C4.98627 8.50105 5.17794 8.68505 5.4335 8.81283L18.9939 17.2941C19.1536 17.3899 19.3217 17.4615 19.498 17.5087C19.6731 17.5573 19.8404 17.5816 20.0002 17.5816Z" fill="#FF6D4D"/>
</svg>
