<svg xmlns="http://www.w3.org/2000/svg" xmlns:xlink="http://www.w3.org/1999/xlink"><symbol id="arrow-next" viewBox="0 0 48 74">
<path d="M19.8222 74L0.399686 74L28.2191 37.4532L0 0L20.1814 3.19108e-05L48 36.5483L19.8222 74Z" fill="#FF6D4D"/>
</symbol><symbol id="arrow-prev" viewBox="0 0 48 74">
<path d="M28.1778 74L47.6003 74L19.7809 37.4532L48 0L27.8186 3.19108e-05L0 36.5483L28.1778 74Z" fill="#FF6D4D"/>
</symbol><symbol id="instagram" viewBox="0 0 40 40">
<path d="M20.0002 0.833008C25.2077 0.833008 25.8575 0.852174 27.9007 0.948008C29.9419 1.04384 31.3315 1.36392 32.5543 1.83926C33.8193 2.32609 34.885 2.98542 35.9507 4.04917C36.9253 5.00731 37.6794 6.1663 38.1606 7.44551C38.634 8.66642 38.956 10.0579 39.0518 12.0992C39.1419 14.1423 39.1668 14.7921 39.1668 19.9997C39.1668 25.2073 39.1477 25.857 39.0518 27.9002C38.956 29.9414 38.634 31.331 38.1606 32.5538C37.6808 33.8337 36.9265 34.993 35.9507 35.9502C34.9923 36.9245 33.8333 37.6785 32.5543 38.1601C31.3334 38.6335 29.9419 38.9555 27.9007 39.0513C25.8575 39.1414 25.2077 39.1663 20.0002 39.1663C14.7926 39.1663 14.1428 39.1472 12.0997 39.0513C10.0584 38.9555 8.66883 38.6335 7.446 38.1601C6.16629 37.6799 5.00709 36.9257 4.04966 35.9502C3.07486 34.9922 2.3207 33.8332 1.83975 32.5538C1.36441 31.3329 1.04433 29.9414 0.948496 27.9002C0.858413 25.857 0.833496 25.2073 0.833496 19.9997C0.833496 14.7921 0.852663 14.1423 0.948496 12.0992C1.04433 10.056 1.36441 8.66834 1.83975 7.44551C2.31937 6.16552 3.0737 5.00621 4.04966 4.04917C5.00737 3.07403 6.16648 2.31982 7.446 1.83926C8.66883 1.36392 10.0565 1.04384 12.0997 0.948008C14.1428 0.857924 14.7926 0.833008 20.0002 0.833008ZM20.0002 10.4163C17.4585 10.4163 15.0209 11.426 13.2237 13.2232C11.4265 15.0205 10.4168 17.458 10.4168 19.9997C10.4168 22.5413 11.4265 24.9789 13.2237 26.7761C15.0209 28.5733 17.4585 29.583 20.0002 29.583C22.5418 29.583 24.9794 28.5733 26.7766 26.7761C28.5738 24.9789 29.5835 22.5413 29.5835 19.9997C29.5835 17.458 28.5738 15.0205 26.7766 13.2232C24.9794 11.426 22.5418 10.4163 20.0002 10.4163ZM32.4585 9.93717C32.4585 9.30176 32.2061 8.69237 31.7568 8.24306C31.3075 7.79376 30.6981 7.54134 30.0627 7.54134C29.4272 7.54134 28.8179 7.79376 28.3686 8.24306C27.9192 8.69237 27.6668 9.30176 27.6668 9.93717C27.6668 10.5726 27.9192 11.182 28.3686 11.6313C28.8179 12.0806 29.4272 12.333 30.0627 12.333C30.6981 12.333 31.3075 12.0806 31.7568 11.6313C32.2061 11.182 32.4585 10.5726 32.4585 9.93717ZM20.0002 14.2497C21.5252 14.2497 22.9877 14.8555 24.066 15.9338C25.1444 17.0121 25.7502 18.4747 25.7502 19.9997C25.7502 21.5247 25.1444 22.9872 24.066 24.0655C22.9877 25.1439 21.5252 25.7497 20.0002 25.7497C18.4752 25.7497 17.0126 25.1439 15.9343 24.0655C14.856 22.9872 14.2502 21.5247 14.2502 19.9997C14.2502 18.4747 14.856 17.0121 15.9343 15.9338C17.0126 14.8555 18.4752 14.2497 20.0002 14.2497Z" fill="#FF6D4D"/>
</symbol><symbol id="logo-footer" viewBox="0 0 200 42">
<path d="M51.8263 0L57.1877 10.9162L51.5284 27.8807L45.7202 15.9318L51.8263 0Z" fill="#EBEAE9"/>
<path d="M29.1879 0L34.5494 10.9162L28.8901 27.8807L23.0818 15.9318L29.1879 0Z" fill="#EBEAE9"/>
<path d="M15.787 0H29.2127L13.3738 41.8948H0L15.787 0Z" fill="#fff"/>
<path d="M38.574 0H51.8282L36.0416 41.8948H22.787L38.574 0Z" fill="#fff"/>
<path d="M61.21 0H74.6358L58.7968 41.8948H45.423L61.21 0Z" fill="#FF6D4D"/>
<path d="M74.6141 0H79.2309L95.0987 41.8948H81.7628L70.2952 11.5063L74.6141 0Z" fill="#FF6D4D"/>
<path d="M66.7842 29.7993H77.2948L81.7635 41.8958H72.6788L66.7842 29.7993Z" fill="#FF6D4D"/>
<path fill-rule="evenodd" clip-rule="evenodd" d="M121.87 21.6132C121.87 24.53 121.89 25.6878 121.945 25.8668C122.037 26.1726 122.491 26.6817 122.833 26.8629C123.076 26.9917 123.181 27.0005 124.702 27.0187L126.315 27.038V26.2293V25.4206L124.922 25.4039L123.529 25.3872L123.512 23.4186L123.496 21.4498H124.906H126.315V20.6438V19.8377H124.906H123.498V18.7216V17.6055H122.684H121.87V21.6132ZM101.838 22.566V27.0303H102.683H103.527L103.544 23.7974L103.56 20.5644L105.238 22.528C106.16 23.6079 106.936 24.4789 106.961 24.4636C106.986 24.4483 107.752 23.5551 108.663 22.4789L110.32 20.5222L110.337 23.7763L110.353 27.0303H111.197H112.042V22.566V18.1015L111.119 18.1016L110.195 18.1017L108.568 20.0296L106.94 21.9574L106.706 21.6882C106.577 21.5401 105.845 20.6741 105.078 19.7639L103.685 18.1089L102.762 18.1052L101.838 18.1015V22.566ZM114.671 19.8942C114.2 20.0404 113.758 20.4327 113.549 20.8918C113.429 21.1559 113.422 21.2915 113.422 23.434C113.422 25.5766 113.429 25.7121 113.549 25.9763C113.704 26.3159 114.052 26.6845 114.389 26.8651C114.631 26.9945 114.721 27.0001 116.893 27.0195C118.428 27.0333 119.252 27.017 119.476 26.9686C119.936 26.8691 120.368 26.5172 120.596 26.0573L120.775 25.6973V23.434C120.775 21.2579 120.77 21.1598 120.642 20.8863C120.482 20.5433 120.146 20.1985 119.787 20.0086C119.527 19.8712 119.481 19.8685 117.175 19.8571C115.884 19.8506 114.757 19.8674 114.671 19.8942ZM128.445 19.9442C128.059 20.0809 127.555 20.59 127.422 20.9809C127.331 21.2432 127.316 21.5869 127.316 23.434C127.316 25.9403 127.326 25.9935 127.846 26.5089C128.376 27.0337 128.411 27.0392 131.143 27.0177C133.24 27.0013 133.504 26.988 133.685 26.8897C134.027 26.7045 134.327 26.4054 134.504 26.0749L134.672 25.7593V23.434V21.1088L134.516 20.8063C134.347 20.4797 134.011 20.1604 133.648 19.9811C133.441 19.8792 133.2 19.8675 131.072 19.857C129.06 19.8469 128.685 19.8594 128.445 19.9442ZM119.084 23.434V25.3872H117.081H115.078L115.061 23.4966C115.052 22.4568 115.059 21.5706 115.076 21.5271C115.1 21.4649 115.529 21.4516 117.095 21.4645L119.084 21.4809V23.434ZM133 21.5242C133.116 21.6397 133.107 25.2532 132.99 25.3495C132.929 25.3997 132.337 25.4153 130.94 25.4036L128.976 25.3872L128.958 23.4692C128.946 21.9761 128.96 21.5402 129.021 21.5015C129.157 21.4165 132.913 21.438 133 21.5242Z" fill="#EBEAE9"/>
<path fill-rule="evenodd" clip-rule="evenodd" d="M169.135 18.6551V19.8304L166.897 19.8489C164.717 19.8667 164.652 19.8708 164.396 20.0063C164.056 20.1861 163.702 20.5463 163.556 20.8593C163.451 21.086 163.441 21.3059 163.44 23.4191C163.439 25.9398 163.438 25.9387 163.809 26.4019C163.909 26.5286 164.142 26.7145 164.326 26.815L164.659 26.998L167.741 27.0157L170.825 27.0334V22.2567V17.48H169.98H169.135V18.6551ZM137.233 18.1992C136.892 18.3203 136.498 18.6624 136.286 19.0199L136.114 19.3092L136.096 23.169L136.078 27.0289H136.895H137.71V25.5408V24.0526H140.558H143.407V25.5408V27.0289H144.251H145.097V23.3361C145.097 20.9032 145.074 19.5525 145.029 19.3779C144.933 18.9973 144.561 18.5487 144.158 18.3233L143.814 18.1311L140.652 18.1193C138 18.1095 137.45 18.1224 137.233 18.1992ZM143.392 21.0919L143.409 22.3784H140.559H137.71V21.1177C137.71 20.4242 137.729 19.838 137.752 19.8149C137.776 19.7918 139.05 19.7803 140.585 19.7891L143.375 19.8052L143.392 21.0919ZM147.725 19.8941C147.422 19.9858 147.185 20.1397 146.934 20.4087C146.471 20.907 146.467 20.9332 146.487 23.5256C146.504 25.6026 146.516 25.8414 146.62 26.0479C146.772 26.3514 147.109 26.6881 147.431 26.8588C147.692 26.9967 147.721 26.9981 150.777 27.0157L153.86 27.0334V26.2257V25.418L150.996 25.4018L148.132 25.3858V23.4326V21.4793L150.966 21.4633L153.798 21.4472V20.6416V19.8362L150.841 19.8416C149.213 19.8445 147.811 19.8682 147.725 19.8941ZM155.113 20.6394V21.4472L157.945 21.4633L160.778 21.4793L160.795 22.0529L160.814 22.6264H157.961H155.107L155.125 24.2592L155.143 25.8919L155.333 26.1968C155.539 26.5283 155.984 26.8635 156.353 26.9648C156.495 27.0038 157.712 27.0283 159.51 27.0285L162.436 27.0289V24.1302C162.436 22.3526 162.412 21.1433 162.373 21.0039C162.292 20.7173 161.811 20.1828 161.473 20.0036C161.219 19.8692 161.172 19.8669 158.164 19.8495L155.113 19.8317V20.6394ZM173.071 19.9204C172.482 20.1328 172.083 20.5459 171.914 21.1182C171.837 21.3826 171.824 21.8145 171.839 23.572L171.858 25.7049L172.047 26.0706C172.256 26.4762 172.679 26.841 173.076 26.9589C173.237 27.0067 174.251 27.0289 176.262 27.0289H179.213V26.2235V25.418L176.381 25.4018L173.548 25.3858L173.531 24.8123L173.512 24.2387H176.366H179.221L179.201 22.642C179.179 20.8382 179.163 20.7679 178.658 20.3161C178.138 19.8504 178.257 19.8689 175.645 19.853C173.831 19.8419 173.246 19.8574 173.071 19.9204ZM180.528 23.4326V27.0289H181.373H182.217L182.233 24.2541L182.25 21.4793H183.658H185.066L185.082 24.2541L185.099 27.0289H185.912H186.725V24.313C186.725 22.2834 186.744 21.5784 186.8 21.5228C186.907 21.4174 189.487 21.4174 189.592 21.5228C189.648 21.5784 189.668 22.2834 189.668 24.313V27.0289H190.484H191.3L191.282 24.0682L191.263 21.1074L191.108 20.8049C191.022 20.6386 190.831 20.3966 190.681 20.267C190.169 19.8203 190.371 19.8362 185.18 19.8362H180.528V23.4326ZM192.636 19.9191C192.618 19.9667 192.612 21.286 192.621 22.8508C192.638 25.393 192.652 25.7212 192.75 25.9338C192.924 26.3165 193.202 26.6191 193.56 26.815L193.893 26.998L196.131 27.0163L198.369 27.0347V27.5213C198.369 27.9076 198.348 28.0155 198.27 28.0454C198.216 28.066 197.201 28.083 196.016 28.083H193.862V28.8891V29.6952H196.181C197.607 29.6952 198.603 29.6699 198.763 29.6295C199.134 29.5371 199.582 29.1937 199.789 28.8449L199.964 28.5481L199.983 24.1921L200 19.8362H199.185H198.37L198.354 22.611L198.337 25.3858H196.335H194.331L194.3 22.6264L194.268 19.8672L193.469 19.8498C192.831 19.836 192.663 19.8499 192.636 19.9191ZM169.103 23.4326V25.3858H167.1H165.097L165.081 23.4952C165.071 22.4554 165.077 21.5692 165.094 21.5256C165.119 21.4634 165.548 21.4501 167.114 21.4631L169.103 21.4793V23.4326ZM177.572 22.146L177.589 22.8125H175.554H173.517V22.1718C173.517 21.8193 173.536 21.5121 173.559 21.4889C173.583 21.4656 174.491 21.454 175.578 21.4631L177.554 21.4793L177.572 22.146ZM160.809 24.7355V25.4185L158.79 25.4021L156.771 25.3858L156.754 24.7192L156.735 24.0526H158.772H160.809V24.7355Z" fill="#FF6D4D"/>
</symbol><symbol id="logo" viewBox="0 0 200 42">
<path d="M51.8263 0L57.1877 10.9162L51.5284 27.8807L45.7202 15.9318L51.8263 0Z" fill="#232629"/>
<path d="M29.1879 0L34.5494 10.9162L28.8901 27.8807L23.0818 15.9318L29.1879 0Z" fill="#232629"/>
<path d="M15.787 0H29.2127L13.3738 41.8948H0L15.787 0Z" fill="#32373D"/>
<path d="M38.574 0H51.8282L36.0416 41.8948H22.787L38.574 0Z" fill="#32373D"/>
<path d="M61.21 0H74.6358L58.7968 41.8948H45.423L61.21 0Z" fill="#FF6D4D"/>
<path d="M74.6141 0H79.2309L95.0987 41.8948H81.7628L70.2952 11.5063L74.6141 0Z" fill="#FF6D4D"/>
<path d="M66.7842 29.7993H77.2948L81.7635 41.8958H72.6788L66.7842 29.7993Z" fill="#FF6D4D"/>
<path fill-rule="evenodd" clip-rule="evenodd" d="M121.87 21.6132C121.87 24.53 121.89 25.6878 121.945 25.8668C122.037 26.1726 122.491 26.6817 122.833 26.8629C123.076 26.9917 123.181 27.0005 124.702 27.0187L126.315 27.038V26.2293V25.4206L124.922 25.4039L123.529 25.3872L123.512 23.4186L123.496 21.4498H124.906H126.315V20.6438V19.8377H124.906H123.498V18.7216V17.6055H122.684H121.87V21.6132ZM101.838 22.566V27.0303H102.683H103.527L103.544 23.7974L103.56 20.5644L105.238 22.528C106.16 23.6079 106.936 24.4789 106.961 24.4636C106.986 24.4483 107.752 23.5551 108.663 22.4789L110.32 20.5222L110.337 23.7763L110.353 27.0303H111.197H112.042V22.566V18.1015L111.119 18.1016L110.195 18.1017L108.568 20.0296L106.94 21.9574L106.706 21.6882C106.577 21.5401 105.845 20.6741 105.078 19.7639L103.685 18.1089L102.762 18.1052L101.838 18.1015V22.566ZM114.671 19.8942C114.2 20.0404 113.758 20.4327 113.549 20.8918C113.429 21.1559 113.422 21.2915 113.422 23.434C113.422 25.5766 113.429 25.7121 113.549 25.9763C113.704 26.3159 114.052 26.6845 114.389 26.8651C114.631 26.9945 114.721 27.0001 116.893 27.0195C118.428 27.0333 119.252 27.017 119.476 26.9686C119.936 26.8691 120.368 26.5172 120.596 26.0573L120.775 25.6973V23.434C120.775 21.2579 120.77 21.1598 120.642 20.8863C120.482 20.5433 120.146 20.1985 119.787 20.0086C119.527 19.8712 119.481 19.8685 117.175 19.8571C115.884 19.8506 114.757 19.8674 114.671 19.8942ZM128.445 19.9442C128.059 20.0809 127.555 20.59 127.422 20.9809C127.331 21.2432 127.316 21.5869 127.316 23.434C127.316 25.9403 127.326 25.9935 127.846 26.5089C128.376 27.0337 128.411 27.0392 131.143 27.0177C133.24 27.0013 133.504 26.988 133.685 26.8897C134.027 26.7045 134.327 26.4054 134.504 26.0749L134.672 25.7593V23.434V21.1088L134.516 20.8063C134.347 20.4797 134.011 20.1604 133.648 19.9811C133.441 19.8792 133.2 19.8675 131.072 19.857C129.06 19.8469 128.685 19.8594 128.445 19.9442ZM119.084 23.434V25.3872H117.081H115.078L115.061 23.4966C115.052 22.4568 115.059 21.5706 115.076 21.5271C115.1 21.4649 115.529 21.4516 117.095 21.4645L119.084 21.4809V23.434ZM133 21.5242C133.116 21.6397 133.107 25.2532 132.99 25.3495C132.929 25.3997 132.337 25.4153 130.94 25.4036L128.976 25.3872L128.958 23.4692C128.946 21.9761 128.96 21.5402 129.021 21.5015C129.157 21.4165 132.913 21.438 133 21.5242Z" fill="#32373D"/>
<path fill-rule="evenodd" clip-rule="evenodd" d="M169.135 18.6551V19.8304L166.897 19.8489C164.717 19.8667 164.652 19.8708 164.396 20.0063C164.056 20.1861 163.702 20.5463 163.556 20.8593C163.451 21.086 163.441 21.3059 163.44 23.4191C163.439 25.9398 163.438 25.9387 163.809 26.4019C163.909 26.5286 164.142 26.7145 164.326 26.815L164.659 26.998L167.741 27.0157L170.825 27.0334V22.2567V17.48H169.98H169.135V18.6551ZM137.233 18.1992C136.892 18.3203 136.498 18.6624 136.286 19.0199L136.114 19.3092L136.096 23.169L136.078 27.0289H136.895H137.71V25.5408V24.0526H140.558H143.407V25.5408V27.0289H144.251H145.097V23.3361C145.097 20.9032 145.074 19.5525 145.029 19.3779C144.933 18.9973 144.561 18.5487 144.158 18.3233L143.814 18.1311L140.652 18.1193C138 18.1095 137.45 18.1224 137.233 18.1992ZM143.392 21.0919L143.409 22.3784H140.559H137.71V21.1177C137.71 20.4242 137.729 19.838 137.752 19.8149C137.776 19.7918 139.05 19.7803 140.585 19.7891L143.375 19.8052L143.392 21.0919ZM147.725 19.8941C147.422 19.9858 147.185 20.1397 146.934 20.4087C146.471 20.907 146.467 20.9332 146.487 23.5256C146.504 25.6026 146.516 25.8414 146.62 26.0479C146.772 26.3514 147.109 26.6881 147.431 26.8588C147.692 26.9967 147.721 26.9981 150.777 27.0157L153.86 27.0334V26.2257V25.418L150.996 25.4018L148.132 25.3858V23.4326V21.4793L150.966 21.4633L153.798 21.4472V20.6416V19.8362L150.841 19.8416C149.213 19.8445 147.811 19.8682 147.725 19.8941ZM155.113 20.6394V21.4472L157.945 21.4633L160.778 21.4793L160.795 22.0529L160.814 22.6264H157.961H155.107L155.125 24.2592L155.143 25.8919L155.333 26.1968C155.539 26.5283 155.984 26.8635 156.353 26.9648C156.495 27.0038 157.712 27.0283 159.51 27.0285L162.436 27.0289V24.1302C162.436 22.3526 162.412 21.1433 162.373 21.0039C162.292 20.7173 161.811 20.1828 161.473 20.0036C161.219 19.8692 161.172 19.8669 158.164 19.8495L155.113 19.8317V20.6394ZM173.071 19.9204C172.482 20.1328 172.083 20.5459 171.914 21.1182C171.837 21.3826 171.824 21.8145 171.839 23.572L171.858 25.7049L172.047 26.0706C172.256 26.4762 172.679 26.841 173.076 26.9589C173.237 27.0067 174.251 27.0289 176.262 27.0289H179.213V26.2235V25.418L176.381 25.4018L173.548 25.3858L173.531 24.8123L173.512 24.2387H176.366H179.221L179.201 22.642C179.179 20.8382 179.163 20.7679 178.658 20.3161C178.138 19.8504 178.257 19.8689 175.645 19.853C173.831 19.8419 173.246 19.8574 173.071 19.9204ZM180.528 23.4326V27.0289H181.373H182.217L182.233 24.2541L182.25 21.4793H183.658H185.066L185.082 24.2541L185.099 27.0289H185.912H186.725V24.313C186.725 22.2834 186.744 21.5784 186.8 21.5228C186.907 21.4174 189.487 21.4174 189.592 21.5228C189.648 21.5784 189.668 22.2834 189.668 24.313V27.0289H190.484H191.3L191.282 24.0682L191.263 21.1074L191.108 20.8049C191.022 20.6386 190.831 20.3966 190.681 20.267C190.169 19.8203 190.371 19.8362 185.18 19.8362H180.528V23.4326ZM192.636 19.9191C192.618 19.9667 192.612 21.286 192.621 22.8508C192.638 25.393 192.652 25.7212 192.75 25.9338C192.924 26.3165 193.202 26.6191 193.56 26.815L193.893 26.998L196.131 27.0163L198.369 27.0347V27.5213C198.369 27.9076 198.348 28.0155 198.27 28.0454C198.216 28.066 197.201 28.083 196.016 28.083H193.862V28.8891V29.6952H196.181C197.607 29.6952 198.603 29.6699 198.763 29.6295C199.134 29.5371 199.582 29.1937 199.789 28.8449L199.964 28.5481L199.983 24.1921L200 19.8362H199.185H198.37L198.354 22.611L198.337 25.3858H196.335H194.331L194.3 22.6264L194.268 19.8672L193.469 19.8498C192.831 19.836 192.663 19.8499 192.636 19.9191ZM169.103 23.4326V25.3858H167.1H165.097L165.081 23.4952C165.071 22.4554 165.077 21.5692 165.094 21.5256C165.119 21.4634 165.548 21.4501 167.114 21.4631L169.103 21.4793V23.4326ZM177.572 22.146L177.589 22.8125H175.554H173.517V22.1718C173.517 21.8193 173.536 21.5121 173.559 21.4889C173.583 21.4656 174.491 21.454 175.578 21.4631L177.554 21.4793L177.572 22.146ZM160.809 24.7355V25.4185L158.79 25.4021L156.771 25.3858L156.754 24.7192L156.735 24.0526H158.772H160.809V24.7355Z" fill="#FF6D4D"/>
</symbol><symbol id="mail" viewBox="0 0 40 32">
<path d="M4.66683 31.3337C3.61266 31.3337 2.71055 30.9586 1.9605 30.2086C1.20916 29.4572 0.833496 28.5545 0.833496 27.5003V4.50033C0.833496 3.44616 1.20916 2.54405 1.9605 1.79399C2.71055 1.04266 3.61266 0.666992 4.66683 0.666992H35.3335C36.3877 0.666992 37.2904 1.04266 38.0417 1.79399C38.7918 2.54405 39.1668 3.44616 39.1668 4.50033V27.5003C39.1668 28.5545 38.7918 29.4572 38.0417 30.2086C37.2904 30.9586 36.3877 31.3337 35.3335 31.3337H4.66683ZM20.0002 17.5816C20.1599 17.5816 20.3273 17.5573 20.5023 17.5087C20.6787 17.4615 20.8467 17.3899 21.0064 17.2941L34.5668 8.81283C34.8224 8.6531 35.014 8.45377 35.1418 8.21483C35.2696 7.9746 35.3335 7.71074 35.3335 7.42324C35.3335 6.78435 35.062 6.30519 34.5189 5.98574C33.9759 5.6663 33.4168 5.68227 32.8418 6.03366L20.0002 14.0837L7.1585 6.03366C6.5835 5.68227 6.02447 5.67396 5.48141 6.00874C4.93836 6.3448 4.66683 6.8163 4.66683 7.42324C4.66683 7.74269 4.73072 8.02188 4.8585 8.26083C4.98627 8.50105 5.17794 8.68505 5.4335 8.81283L18.9939 17.2941C19.1536 17.3899 19.3217 17.4615 19.498 17.5087C19.6731 17.5573 19.8404 17.5816 20.0002 17.5816Z" fill="#FF6D4D"/>
</symbol><symbol id="map" viewBox="0 0 32 40">
<path fill-rule="evenodd" clip-rule="evenodd" d="M15.9998 39.1663C15.9998 39.1663 31.3332 27.6663 31.3332 16.1663C31.3332 12.0997 29.7177 8.19959 26.8421 5.32404C23.9666 2.44848 20.0665 0.833008 15.9998 0.833008C11.9332 0.833008 8.03309 2.44848 5.15753 5.32404C2.28198 8.19959 0.666504 12.0997 0.666504 16.1663C0.666504 27.6663 15.9998 39.1663 15.9998 39.1663ZM21.75 16.1663C21.75 19.342 19.1756 21.9163 16 21.9163C12.8244 21.9163 10.25 19.342 10.25 16.1663C10.25 12.9907 12.8244 10.4163 16 10.4163C19.1756 10.4163 21.75 12.9907 21.75 16.1663Z" fill="#FF6D4D"/>
</symbol><symbol id="phone" viewBox="0 0 39 40">
<path d="M38.1667 29.4299V35.1799C38.1689 35.7137 38.0596 36.242 37.8457 36.7311C37.6319 37.2202 37.3182 37.6592 36.9249 38.0201C36.5315 38.381 36.0672 38.6557 35.5615 38.8267C35.0558 38.9977 34.52 39.0612 33.9884 39.0132C28.0905 38.3723 22.4252 36.357 17.4476 33.129C12.8166 30.1863 8.8903 26.26 5.94758 21.629C2.70837 16.6288 0.692541 10.9359 0.0634086 5.01153C0.015512 4.48151 0.0785022 3.94732 0.248368 3.44297C0.418233 2.93863 0.691253 2.47518 1.05004 2.08213C1.40883 1.68909 1.84553 1.37505 2.33234 1.16003C2.81915 0.945002 3.34539 0.833695 3.87758 0.833194H9.62758C10.5577 0.824039 11.4595 1.15343 12.1648 1.75996C12.8701 2.3665 13.3307 3.2088 13.4609 4.12986C13.7036 5.96999 14.1537 7.77675 14.8026 9.51569C15.0605 10.2017 15.1163 10.9473 14.9634 11.664C14.8105 12.3808 14.4554 13.0387 13.9401 13.5599L11.5059 15.994C14.2344 20.7925 18.2074 24.7655 23.0059 27.494L25.4401 25.0599C25.9612 24.5445 26.6191 24.1894 27.3359 24.0365C28.0527 23.8837 28.7982 23.9395 29.4842 24.1974C31.2232 24.8463 33.0299 25.2963 34.8701 25.539C35.8011 25.6704 36.6514 26.1393 37.2593 26.8567C37.8671 27.5741 38.1901 28.4899 38.1667 29.4299Z" fill="#FF6D4D"/>
</symbol><symbol id="telegram" viewBox="0 0 40 40">
<path d="M20.0002 0.833008C9.42016 0.833008 0.833496 9.41967 0.833496 19.9997C0.833496 30.5797 9.42016 39.1663 20.0002 39.1663C30.5802 39.1663 39.1668 30.5797 39.1668 19.9997C39.1668 9.41967 30.5802 0.833008 20.0002 0.833008ZM28.8935 13.8663C28.606 16.8947 27.3602 24.2547 26.7277 27.6472C26.4593 29.0847 25.9227 29.5638 25.4243 29.6213C24.3127 29.7172 23.4693 28.893 22.396 28.1838C20.7093 27.0722 19.751 26.3822 18.1218 25.3088C16.2243 24.063 17.451 23.373 18.5435 22.2613C18.831 21.9738 23.7377 17.508 23.8335 17.1055C23.8468 17.0445 23.845 16.9813 23.8283 16.9211C23.8116 16.861 23.7805 16.8059 23.7377 16.7605C23.6227 16.6647 23.4693 16.703 23.3352 16.7222C23.1627 16.7605 20.4793 18.543 15.2468 22.0697C14.4802 22.5872 13.7902 22.8555 13.1768 22.8363C12.4868 22.8172 11.1835 22.453 10.206 22.1272C8.9985 21.7438 8.05933 21.533 8.136 20.8622C8.17433 20.5172 8.6535 20.1722 9.55433 19.808C15.151 17.3738 18.8693 15.7638 20.7285 14.9972C26.0568 12.7738 27.1493 12.3905 27.8777 12.3905C28.031 12.3905 28.3952 12.4288 28.6252 12.6205C28.8168 12.7738 28.8743 12.9847 28.8935 13.138C28.8743 13.253 28.9127 13.598 28.8935 13.8663Z" fill="#FF6D4D"/>
</symbol><symbol id="whatsapp" viewBox="0 0 40 40">
<path d="M0.841188 39.1663L3.43252 29.6443C1.72504 26.7173 0.827956 23.3883 0.833522 19.9997C0.833522 9.41393 9.41444 0.833008 20.0002 0.833008C30.5859 0.833008 39.1669 9.41393 39.1669 19.9997C39.1669 30.5854 30.5859 39.1663 20.0002 39.1663C16.613 39.1718 13.2854 38.2754 10.3594 36.5693L0.841188 39.1663ZM13.0829 11.0067C12.8354 11.022 12.5936 11.0872 12.3719 11.1983C12.1639 11.3161 11.9741 11.4633 11.8084 11.6353C11.5784 11.8519 11.448 12.0398 11.3081 12.2218C10.5997 13.1437 10.2187 14.2754 10.2252 15.438C10.229 16.3772 10.4744 17.2914 10.8577 18.1463C11.6416 19.8751 12.9315 21.7055 14.6354 23.4018C15.0456 23.81 15.4462 24.2202 15.8774 24.6016C17.9923 26.4636 20.5124 27.8063 23.2374 28.5231L24.328 28.6898C24.6826 28.709 25.0372 28.6822 25.3937 28.6649C25.9519 28.6361 26.4969 28.485 26.9903 28.2222C27.2413 28.0929 27.4862 27.9522 27.7244 27.8005C27.7244 27.8005 27.8068 27.7468 27.9639 27.628C28.2227 27.4363 28.3818 27.3003 28.5964 27.076C28.7555 26.9112 28.8935 26.7176 28.9989 26.4972C29.1484 26.1848 29.2979 25.5887 29.3593 25.0923C29.4053 24.7128 29.3919 24.5058 29.3861 24.3773C29.3784 24.1723 29.2079 23.9595 29.0219 23.8694L27.9064 23.3692C27.9064 23.3692 26.2389 22.6428 25.2212 22.1789C25.1139 22.1321 24.9989 22.1055 24.8819 22.1003C24.7508 22.0869 24.6183 22.1016 24.4933 22.1436C24.3684 22.1856 24.2538 22.2538 24.1574 22.3438V22.3399C24.1479 22.3399 24.0194 22.4492 22.6337 24.1282C22.5541 24.2351 22.4446 24.3158 22.319 24.3602C22.1934 24.4046 22.0574 24.4105 21.9284 24.3773C21.8035 24.3439 21.6811 24.3017 21.5623 24.2508C21.3246 24.1512 21.2422 24.1128 21.0793 24.0419L21.0697 24.0381C19.9732 23.5594 18.958 22.9127 18.0605 22.1214C17.819 21.9106 17.5948 21.6806 17.3648 21.4583C16.6107 20.7361 15.9536 19.9192 15.4098 19.0279L15.2967 18.8458C15.2155 18.7235 15.1498 18.5915 15.1012 18.4529C15.0284 18.1712 15.2181 17.945 15.2181 17.945C15.2181 17.945 15.6839 17.4352 15.9004 17.1592C16.0808 16.9298 16.249 16.6912 16.4045 16.4443C16.6307 16.0801 16.7016 15.7063 16.5828 15.4169C16.0461 14.1059 15.4903 12.8007 14.9191 11.505C14.806 11.2482 14.4706 11.0642 14.1659 11.0278C14.0624 11.0163 13.9589 11.0048 13.8554 10.9971C13.598 10.9843 13.34 10.9869 13.0829 11.0048V11.0067Z" fill="#FF6D4D"/>
</symbol></svg>