<svg width="40" height="40" viewBox="0 0 40 40" fill="none" xmlns="http://www.w3.org/2000/svg">
<path d="M20.0002 0.833008C9.42016 0.833008 0.833496 9.41967 0.833496 19.9997C0.833496 30.5797 9.42016 39.1663 20.0002 39.1663C30.5802 39.1663 39.1668 30.5797 39.1668 19.9997C39.1668 9.41967 30.5802 0.833008 20.0002 0.833008ZM28.8935 13.8663C28.606 16.8947 27.3602 24.2547 26.7277 27.6472C26.4593 29.0847 25.9227 29.5638 25.4243 29.6213C24.3127 29.7172 23.4693 28.893 22.396 28.1838C20.7093 27.0722 19.751 26.3822 18.1218 25.3088C16.2243 24.063 17.451 23.373 18.5435 22.2613C18.831 21.9738 23.7377 17.508 23.8335 17.1055C23.8468 17.0445 23.845 16.9813 23.8283 16.9211C23.8116 16.861 23.7805 16.8059 23.7377 16.7605C23.6227 16.6647 23.4693 16.703 23.3352 16.7222C23.1627 16.7605 20.4793 18.543 15.2468 22.0697C14.4802 22.5872 13.7902 22.8555 13.1768 22.8363C12.4868 22.8172 11.1835 22.453 10.206 22.1272C8.9985 21.7438 8.05933 21.533 8.136 20.8622C8.17433 20.5172 8.6535 20.1722 9.55433 19.808C15.151 17.3738 18.8693 15.7638 20.7285 14.9972C26.0568 12.7738 27.1493 12.3905 27.8777 12.3905C28.031 12.3905 28.3952 12.4288 28.6252 12.6205C28.8168 12.7738 28.8743 12.9847 28.8935 13.138C28.8743 13.253 28.9127 13.598 28.8935 13.8663Z" fill="#FF6D4D"/>
</svg>
