<svg width="40" height="40" viewBox="0 0 40 40" fill="none" xmlns="http://www.w3.org/2000/svg">
<path d="M0.841188 39.1663L3.43252 29.6443C1.72504 26.7173 0.827956 23.3883 0.833522 19.9997C0.833522 9.41393 9.41444 0.833008 20.0002 0.833008C30.5859 0.833008 39.1669 9.41393 39.1669 19.9997C39.1669 30.5854 30.5859 39.1663 20.0002 39.1663C16.613 39.1718 13.2854 38.2754 10.3594 36.5693L0.841188 39.1663ZM13.0829 11.0067C12.8354 11.022 12.5936 11.0872 12.3719 11.1983C12.1639 11.3161 11.9741 11.4633 11.8084 11.6353C11.5784 11.8519 11.448 12.0398 11.3081 12.2218C10.5997 13.1437 10.2187 14.2754 10.2252 15.438C10.229 16.3772 10.4744 17.2914 10.8577 18.1463C11.6416 19.8751 12.9315 21.7055 14.6354 23.4018C15.0456 23.81 15.4462 24.2202 15.8774 24.6016C17.9923 26.4636 20.5124 27.8063 23.2374 28.5231L24.328 28.6898C24.6826 28.709 25.0372 28.6822 25.3937 28.6649C25.9519 28.6361 26.4969 28.485 26.9903 28.2222C27.2413 28.0929 27.4862 27.9522 27.7244 27.8005C27.7244 27.8005 27.8068 27.7468 27.9639 27.628C28.2227 27.4363 28.3818 27.3003 28.5964 27.076C28.7555 26.9112 28.8935 26.7176 28.9989 26.4972C29.1484 26.1848 29.2979 25.5887 29.3593 25.0923C29.4053 24.7128 29.3919 24.5058 29.3861 24.3773C29.3784 24.1723 29.2079 23.9595 29.0219 23.8694L27.9064 23.3692C27.9064 23.3692 26.2389 22.6428 25.2212 22.1789C25.1139 22.1321 24.9989 22.1055 24.8819 22.1003C24.7508 22.0869 24.6183 22.1016 24.4933 22.1436C24.3684 22.1856 24.2538 22.2538 24.1574 22.3438V22.3399C24.1479 22.3399 24.0194 22.4492 22.6337 24.1282C22.5541 24.2351 22.4446 24.3158 22.319 24.3602C22.1934 24.4046 22.0574 24.4105 21.9284 24.3773C21.8035 24.3439 21.6811 24.3017 21.5623 24.2508C21.3246 24.1512 21.2422 24.1128 21.0793 24.0419L21.0697 24.0381C19.9732 23.5594 18.958 22.9127 18.0605 22.1214C17.819 21.9106 17.5948 21.6806 17.3648 21.4583C16.6107 20.7361 15.9536 19.9192 15.4098 19.0279L15.2967 18.8458C15.2155 18.7235 15.1498 18.5915 15.1012 18.4529C15.0284 18.1712 15.2181 17.945 15.2181 17.945C15.2181 17.945 15.6839 17.4352 15.9004 17.1592C16.0808 16.9298 16.249 16.6912 16.4045 16.4443C16.6307 16.0801 16.7016 15.7063 16.5828 15.4169C16.0461 14.1059 15.4903 12.8007 14.9191 11.505C14.806 11.2482 14.4706 11.0642 14.1659 11.0278C14.0624 11.0163 13.9589 11.0048 13.8554 10.9971C13.598 10.9843 13.34 10.9869 13.0829 11.0048V11.0067Z" fill="#FF6D4D"/>
</svg>
